<svg width="3000" height="3792" viewBox="0 0 3000 3792" fill="none" xmlns="http://www.w3.org/2000/svg">
<path d="M310.485 2893.33H313.825V2886.75H317.112V2880.18H320.346V2873.66H323.633V2867.08H326.92V2861.09H310.485V2857.27H334.025V2861.09H330.738V2867.67H327.504V2874.19H324.216V2880.76H320.929V2887.34H317.642V2893.86H314.408V2896.56H334.025V2900.48H310.485V2893.33Z" fill="black"/>
<path d="M340.705 2890.04H344.045V2876.89H347.332V2867.08H350.567V2857.27H354.437V2867.08H357.724V2876.89H360.958V2890.04H364.245V2900.48H360.428V2890.57H344.629V2900.48H340.705V2890.04ZM357.141 2886.75V2877.47H353.854V2867.67H351.15V2877.47H347.863V2886.75H357.141Z" fill="black"/>
<path d="M370.926 2857.27H387.945V2860.51H391.179V2863.8H394.466V2874.19H391.179V2877.47H387.945V2880.18H391.179V2890.04H394.466V2900.48H390.649V2890.57H387.361V2880.76H374.849V2900.48H370.926V2857.27ZM387.361 2876.89V2873.66H390.649V2864.38H387.361V2861.09H374.849V2876.89H387.361Z" fill="black"/>
<path d="M401.146 2890.04H404.486V2876.89H407.774V2867.08H411.008V2857.27H414.878V2867.08H418.165V2876.89H421.399V2890.04H424.687V2900.48H420.869V2890.57H405.07V2900.48H401.146V2890.04ZM417.582 2886.75V2877.47H414.295V2867.67H411.591V2877.47H408.304V2886.75H417.582Z" fill="black"/>
<path d="M464.928 2887.34H461.587V2857.27H465.511V2886.75H468.215V2873.66H471.449V2860.51H475.319V2873.66H478.606V2886.75H481.31V2857.27H485.128V2887.34H481.84V2900.48H478.023V2887.34H474.736V2874.19H472.032V2887.34H468.745V2900.48H464.928V2887.34Z" fill="black"/>
<path d="M495.148 2893.86H491.808V2863.8H495.148V2860.51H498.435V2857.27H508.827V2860.51H512.061V2863.8H515.348V2893.86H512.061V2897.14H508.827V2900.48H498.435V2897.14H495.148V2893.86ZM498.965 2893.33V2896.56H508.244V2893.33H511.531V2864.38H508.244V2861.09H498.965V2864.38H495.731V2893.33H498.965Z" fill="black"/>
<path d="M522.029 2857.27H525.952V2863.8H529.186V2873.66H532.473V2886.75H535.177V2873.66H538.464V2863.8H541.751V2857.27H545.569V2900.48H541.751V2874.19H539.047V2887.34H535.76V2897.14H531.89V2887.34H528.656V2874.19H525.952V2900.48H522.029V2857.27Z" fill="black"/>
<path d="M552.249 2890.04H555.589V2876.89H558.876V2867.08H562.111V2857.27H565.981V2867.08H569.268V2876.89H572.502V2890.04H575.789V2900.48H571.972V2890.57H556.172V2900.48H552.249V2890.04ZM568.685 2886.75V2877.47H565.398V2867.67H562.694V2877.47H559.407V2886.75H568.685Z" fill="black"/>
<path d="M582.47 2857.27H586.393V2863.8H589.627V2870.37H592.914V2876.89H596.201V2883.47H599.489V2890.04H602.193V2857.27H606.01V2900.48H602.193V2897.14H598.905V2890.57H595.618V2884.05H592.331V2877.47H589.097V2870.95H586.393V2900.48H582.47V2857.27Z" fill="black"/>
<path d="M646.251 2893.86H642.911V2863.8H646.251V2860.51H649.538V2857.27H659.93V2860.51H663.164V2863.8H666.451V2870.95H662.634V2864.38H659.346V2861.09H650.068V2864.38H646.834V2893.33H650.068V2896.56H659.346V2893.33H662.634V2883.47H666.451V2893.86H663.164V2897.14H659.93V2900.48H649.538V2897.14H646.251V2893.86Z" fill="black"/>
<path d="M676.471 2893.86H673.131V2863.8H676.471V2860.51H679.759V2857.27H690.15V2860.51H693.384V2863.8H696.672V2893.86H693.384V2897.14H690.15V2900.48H679.759V2897.14H676.471V2893.86ZM680.289 2893.33V2896.56H689.567V2893.33H692.854V2864.38H689.567V2861.09H680.289V2864.38H677.055V2893.33H680.289Z" fill="black"/>
<path d="M703.352 2857.27H707.275V2896.56H726.892V2900.48H703.352V2857.27Z" fill="black"/>
<path d="M733.572 2857.27H737.496V2896.56H757.113V2900.48H733.572V2857.27Z" fill="black"/>
<path d="M763.793 2857.27H787.333V2861.09H767.716V2876.89H784.046V2880.76H767.716V2896.56H787.333V2900.48H763.793V2857.27Z" fill="black"/>
<path d="M797.354 2893.86H794.013V2863.8H797.354V2860.51H800.641V2857.27H811.032V2860.51H814.267V2863.8H817.554V2870.95H813.736V2864.38H810.449V2861.09H801.171V2864.38H797.937V2893.33H801.171V2896.56H810.449V2893.33H813.736V2883.47H817.554V2893.86H814.267V2897.14H811.032V2900.48H800.641V2897.14H797.354V2893.86Z" fill="black"/>
<path d="M834.096 2864.38H824.234V2860.51H847.774V2864.38H837.966V2900.48H834.096V2864.38Z" fill="black"/>
<path d="M864.263 2857.27H868.133V2900.48H864.263V2857.27Z" fill="black"/>
<path d="M888.015 2893.86H884.675V2863.8H888.015V2860.51H891.302V2857.27H901.694V2860.51H904.928V2863.8H908.215V2893.86H904.928V2897.14H901.694V2900.48H891.302V2897.14H888.015V2893.86ZM891.833 2893.33V2896.56H901.111V2893.33H904.398V2864.38H901.111V2861.09H891.833V2864.38H888.599V2893.33H891.833Z" fill="black"/>
<path d="M914.896 2857.27H918.819V2863.8H922.053V2870.37H925.34V2876.89H928.628V2883.47H931.915V2890.04H934.619V2857.27H938.436V2900.48H934.619V2897.14H931.331V2890.57H928.044V2884.05H924.757V2877.47H921.523V2870.95H918.819V2900.48H914.896V2857.27Z" fill="black"/>
<path d="M313.825 2969.86H310.485V2939.8H313.825V2936.51H317.112V2933.27H327.504V2936.51H330.738V2939.8H334.025V2946.95H330.208V2940.38H326.92V2937.09H317.642V2940.38H314.408V2969.33H317.642V2972.56H326.92V2969.33H330.208V2959.47H334.025V2969.86H330.738V2973.14H327.504V2976.48H317.112V2973.14H313.825V2969.86Z" fill="black"/>
<path d="M344.045 2969.86H340.705V2952.89H344.045V2949.66H347.332V2946.37H357.724V2949.66H360.958V2952.89H364.245V2969.86H360.958V2973.14H357.724V2976.48H347.332V2973.14H344.045V2969.86ZM347.863 2969.33V2972.56H357.141V2969.33H360.428V2953.47H357.141V2950.19H347.863V2953.47H344.629V2969.33H347.863Z" fill="black"/>
<path d="M370.926 2962.75H374.266V2959.47H387.361V2950.19H374.849V2956.76H370.926V2949.66H374.266V2946.37H387.945V2949.66H391.179V2972.56H394.466V2976.48H390.649V2973.14H384.658V2976.48H374.266V2973.14H370.926V2962.75ZM384.074 2972.56V2969.33H387.361V2963.34H374.849V2972.56H384.074Z" fill="black"/>
<path d="M409.417 2950.19H402.79V2946.37H409.417V2936.51H413.235V2946.37H423.043V2950.19H413.235V2972.56H423.043V2976.48H412.651V2973.14H409.417V2950.19Z" fill="black"/>
<path d="M461.587 2946.37H465.511V2949.66H468.215V2946.37H472.032V2949.66H478.023V2946.37H481.84V2949.66H485.128V2976.48H481.31V2950.19H478.606V2953.47H475.319V2976.48H471.449V2950.19H468.745V2953.47H465.511V2976.48H461.587V2946.37Z" fill="black"/>
<path d="M491.808 2962.75H495.148V2959.47H508.244V2950.19H495.731V2956.76H491.808V2949.66H495.148V2946.37H508.827V2949.66H512.061V2972.56H515.348V2976.48H511.531V2973.14H505.54V2976.48H495.148V2973.14H491.808V2962.75ZM504.957 2972.56V2969.33H508.244V2963.34H495.731V2972.56H504.957Z" fill="black"/>
<path d="M525.369 2969.86H522.029V2952.89H525.369V2949.66H528.656V2946.37H539.047V2949.66H541.751V2936.51H545.569V2976.48H541.751V2973.14H539.047V2976.48H528.656V2973.14H525.369V2969.86ZM529.186 2969.33V2972.56H538.464V2969.33H541.751V2953.47H538.464V2950.19H529.186V2953.47H525.952V2969.33H529.186Z" fill="black"/>
<path d="M555.589 2969.86H552.249V2952.89H555.589V2949.66H558.876V2946.37H569.268V2949.66H572.502V2952.89H575.789V2963.34H556.172V2969.33H559.407V2972.56H568.685V2969.33H571.972V2966.04H575.789V2969.86H572.502V2973.14H569.268V2976.48H558.876V2973.14H555.589V2969.86ZM571.972 2959.47V2953.47H568.685V2950.19H559.407V2953.47H556.172V2959.47H571.972Z" fill="black"/>
<path d="M620.961 2950.19H614.334V2946.37H620.961V2936.51H624.195V2933.27H634.587V2937.09H624.778V2946.37H634.587V2950.19H624.778V2976.48H620.961V2950.19Z" fill="black"/>
<path d="M646.198 2946.37H650.015V2949.66H652.719V2946.37H663.111V2950.19H653.302V2953.47H650.015V2976.48H646.198V2946.37Z" fill="black"/>
<path d="M676.471 2969.86H673.131V2952.89H676.471V2949.66H679.759V2946.37H690.15V2949.66H693.384V2952.89H696.672V2969.86H693.384V2973.14H690.15V2976.48H679.759V2973.14H676.471V2969.86ZM680.289 2969.33V2972.56H689.567V2969.33H692.854V2953.47H689.567V2950.19H680.289V2953.47H677.055V2969.33H680.289Z" fill="black"/>
<path d="M703.352 2946.37H707.275V2949.66H709.979V2946.37H713.796V2949.66H719.788V2946.37H723.605V2949.66H726.892V2976.48H723.075V2950.19H720.371V2953.47H717.084V2976.48H713.213V2950.19H710.509V2953.47H707.275V2976.48H703.352V2946.37Z" fill="black"/>
<path d="M763.793 2933.27H767.716V2939.8H770.95V2949.66H774.238V2962.75H776.942V2949.66H780.229V2939.8H783.516V2933.27H787.333V2976.48H783.516V2950.19H780.812V2963.34H777.525V2973.14H773.654V2963.34H770.42V2950.19H767.716V2976.48H763.793V2933.27Z" fill="black"/>
<path d="M794.013 2962.75H797.354V2959.47H810.449V2950.19H797.937V2956.76H794.013V2949.66H797.354V2946.37H811.032V2949.66H814.267V2972.56H817.554V2976.48H813.736V2973.14H807.745V2976.48H797.354V2973.14H794.013V2962.75ZM807.162 2972.56V2969.33H810.449V2963.34H797.937V2972.56H807.162Z" fill="black"/>
<path d="M824.234 2946.37H828.157V2949.66H830.861V2946.37H841.253V2949.66H844.487V2952.89H847.774V2976.48H843.957V2953.47H840.67V2950.19H831.392V2953.47H828.157V2976.48H824.234V2946.37Z" fill="black"/>
<path d="M862.725 2950.19H856.098V2946.37H862.725V2936.51H866.543V2946.37H876.351V2950.19H866.543V2972.56H876.351V2976.48H865.96V2973.14H862.725V2950.19Z" fill="black"/>
<path d="M888.015 2969.86H884.675V2952.89H888.015V2949.66H891.302V2946.37H901.694V2949.66H904.928V2952.89H908.215V2963.34H888.599V2969.33H891.833V2972.56H901.111V2969.33H904.398V2966.04H908.215V2969.86H904.928V2973.14H901.694V2976.48H891.302V2973.14H888.015V2969.86ZM904.398 2959.47V2953.47H901.111V2950.19H891.833V2953.47H888.599V2959.47H904.398Z" fill="black"/>
<path d="M918.236 2969.86H914.896V2952.89H918.236V2949.66H921.523V2946.37H931.915V2949.66H935.149V2952.89H938.436V2956.76H934.619V2953.47H931.331V2950.19H922.053V2953.47H918.819V2969.33H922.053V2972.56H931.331V2969.33H934.619V2966.04H938.436V2969.86H935.149V2973.14H931.915V2976.48H921.523V2973.14H918.236V2969.86Z" fill="black"/>
<path d="M948.456 2969.86H945.116V2952.89H948.456V2949.66H951.744V2946.37H962.135V2949.66H965.369V2952.89H968.656V2969.86H965.369V2973.14H962.135V2976.48H951.744V2973.14H948.456V2969.86ZM952.274 2969.33V2972.56H961.552V2969.33H964.839V2953.47H961.552V2950.19H952.274V2953.47H949.04V2969.33H952.274Z" fill="black"/>
<path d="M313.825 3004.57H310.485V2984.37H314.408V3004.04H317.112V2994.18H320.346V2984.37H324.216V2994.18H327.504V3004.04H330.208V2984.37H334.025V3004.57H330.738V3014.48H326.92V3004.57H323.633V2994.76H320.929V3004.57H317.642V3014.48H313.825V3004.57Z" fill="black"/>
<path d="M344.045 3007.86H340.705V2990.89H344.045V2987.66H347.332V2984.37H357.724V2987.66H360.958V2990.89H364.245V3007.86H360.958V3011.14H357.724V3014.48H347.332V3011.14H344.045V3007.86ZM347.863 3007.33V3010.56H357.141V3007.33H360.428V2991.47H357.141V2988.19H347.863V2991.47H344.629V3007.33H347.863Z" fill="black"/>
<path d="M374.266 3007.86H370.926V2990.89H374.266V2987.66H377.553V2984.37H387.945V2987.66H391.179V2990.89H394.466V3007.86H391.179V3011.14H387.945V3014.48H377.553V3011.14H374.266V3007.86ZM378.083 3007.33V3010.56H387.361V3007.33H390.649V2991.47H387.361V2988.19H378.083V2991.47H374.849V3007.33H378.083Z" fill="black"/>
<path d="M410.955 2974.51H414.825V3014.48H410.955V2974.51Z" fill="black"/>
<path d="M471.449 3013.85V3007.86H468.215V3001.34H464.928V2991.47H461.587V2984.37H465.511V2990.89H468.745V3000.75H472.032V3007.33H474.736V3000.75H478.023V2990.89H481.31V2984.37H485.128V2991.47H481.84V3001.34H478.606V3007.86H475.319V3014.48H472.032V3017.77H461.587V3013.85H471.449Z" fill="black"/>
<path d="M491.808 3000.75H495.148V2997.47H508.244V2988.19H495.731V2994.76H491.808V2987.66H495.148V2984.37H508.827V2987.66H512.061V3010.56H515.348V3014.48H511.531V3011.14H505.54V3014.48H495.148V3011.14H491.808V3000.75ZM504.957 3010.56V3007.33H508.244V3001.34H495.731V3010.56H504.957Z" fill="black"/>
<path d="M525.316 2984.37H529.133V2987.66H531.837V2984.37H542.229V2988.19H532.42V2991.47H529.133V3014.48H525.316V2984.37Z" fill="black"/>
<path d="M552.249 2984.37H556.172V2987.66H558.876V2984.37H569.268V2987.66H572.502V2990.89H575.789V3014.48H571.972V2991.47H568.685V2988.19H559.407V2991.47H556.172V3014.48H552.249V2984.37Z" fill="black"/>
<path d="M584.325 3004.04H591.43V3011.14H584.325V3004.04Z" fill="black"/>
<path d="M642.911 2971.27H646.834V3010.56H666.451V3014.48H642.911V2971.27Z" fill="black"/>
<path d="M673.131 3000.75H676.471V2997.47H689.567V2988.19H677.055V2994.76H673.131V2987.66H676.471V2984.37H690.15V2987.66H693.384V3010.56H696.672V3014.48H692.854V3011.14H686.863V3014.48H676.471V3011.14H673.131V3000.75ZM686.28 3010.56V3007.33H689.567V3001.34H677.055V3010.56H686.28Z" fill="black"/>
<path d="M703.352 2984.37H707.275V2987.66H709.979V2984.37H720.371V2987.66H723.605V2990.89H726.892V3004.57H723.605V3007.86H720.371V3011.14H709.979V3007.86H707.275V3017.77H703.352V2984.37ZM719.788 3007.33V3004.04H723.075V2991.47H719.788V2988.19H710.509V2991.47H707.275V3004.04H710.509V3007.33H719.788Z" fill="black"/>
<path d="M736.913 3007.86H733.572V2990.89H736.913V2987.66H740.2V2984.37H750.591V2987.66H753.825V2990.89H757.113V3001.34H737.496V3007.33H740.73V3010.56H750.008V3007.33H753.295V3004.04H757.113V3007.86H753.825V3011.14H750.591V3014.48H740.2V3011.14H736.913V3007.86ZM753.295 2997.47V2991.47H750.008V2988.19H740.73V2991.47H737.496V2997.47H753.295Z" fill="black"/>
<path d="M773.601 2974.51H777.472V3014.48H773.601V2974.51Z" fill="black"/>
<path d="M827.574 3007.86H824.234V2990.89H827.574V2987.66H830.861V2984.37H841.253V2987.66H844.487V2990.89H847.774V2994.76H843.957V2991.47H840.67V2988.19H831.392V2991.47H828.157V3007.33H831.392V3010.56H840.67V3007.33H843.957V3004.04H847.774V3007.86H844.487V3011.14H841.253V3014.48H830.861V3011.14H827.574V3007.86Z" fill="black"/>
<path d="M857.795 3007.86H854.455V2990.89H857.795V2987.66H861.082V2984.37H871.474V2987.66H874.708V2990.89H877.995V3007.86H874.708V3011.14H871.474V3014.48H861.082V3011.14H857.795V3007.86ZM861.612 3007.33V3010.56H870.89V3007.33H874.177V2991.47H870.89V2988.19H861.612V2991.47H858.378V3007.33H861.612Z" fill="black"/>
<path d="M894.484 2974.51H898.354V3014.48H894.484V2974.51Z" fill="black"/>
<path d="M924.704 2974.51H928.574V3014.48H924.704V2974.51Z" fill="black"/>
<path d="M945.116 3000.75H948.456V2997.47H961.552V2988.19H949.04V2994.76H945.116V2987.66H948.456V2984.37H962.135V2987.66H965.369V3010.56H968.656V3014.48H964.839V3011.14H958.848V3014.48H948.456V3011.14H945.116V3000.75ZM958.265 3010.56V3007.33H961.552V3001.34H949.04V3010.56H958.265Z" fill="black"/>
<path d="M978.624 2984.37H982.441V2987.66H985.145V2984.37H995.537V2988.19H985.728V2991.47H982.441V3014.48H978.624V2984.37Z" fill="black"/>
<path d="M310.485 3038.75H313.825V3035.47H326.92V3026.19H314.408V3032.76H310.485V3025.66H313.825V3022.37H327.504V3025.66H330.738V3048.56H334.025V3052.48H330.208V3049.14H324.216V3052.48H313.825V3049.14H310.485V3038.75ZM323.633 3048.56V3045.33H326.92V3039.34H314.408V3048.56H323.633Z" fill="black"/>
<path d="M340.705 3022.37H344.629V3025.66H347.332V3022.37H357.724V3025.66H360.958V3028.89H364.245V3052.48H360.428V3029.47H357.141V3026.19H347.863V3029.47H344.629V3052.48H340.705V3022.37Z" fill="black"/>
<path d="M374.266 3045.86H370.926V3028.89H374.266V3025.66H377.553V3022.37H387.945V3025.66H390.649V3012.51H394.466V3052.48H390.649V3049.14H387.945V3052.48H377.553V3049.14H374.266V3045.86ZM378.083 3045.33V3048.56H387.361V3045.33H390.649V3029.47H387.361V3026.19H378.083V3029.47H374.849V3045.33H378.083Z" fill="black"/>
<path d="M441.175 3012.51H445.046V3052.48H441.175V3012.51Z" fill="black"/>
<path d="M464.928 3045.86H461.587V3028.89H464.928V3025.66H468.215V3022.37H478.606V3025.66H481.84V3028.89H485.128V3045.86H481.84V3049.14H478.606V3052.48H468.215V3049.14H464.928V3045.86ZM468.745 3045.33V3048.56H478.023V3045.33H481.31V3029.47H478.023V3026.19H468.745V3029.47H465.511V3045.33H468.745Z" fill="black"/>
<path d="M491.808 3022.37H495.731V3025.66H498.435V3022.37H508.827V3025.66H512.061V3028.89H515.348V3052.48H511.531V3029.47H508.244V3026.19H498.965V3029.47H495.731V3052.48H491.808V3022.37Z" fill="black"/>
<path d="M522.029 3045.33H525.369V3042.57H522.029V3038.75H525.369V3036.05H522.029V3025.66H525.369V3022.37H539.047V3025.66H541.751V3022.37H545.569V3026.19H542.282V3036.05H539.047V3039.34H525.952V3042.04H542.282V3045.33H545.569V3052.48H542.282V3055.77H525.369V3052.48H522.029V3045.33ZM538.464 3035.47V3026.19H525.952V3035.47H538.464ZM541.751 3051.85V3045.86H525.952V3051.85H541.751Z" fill="black"/>
<path d="M582.47 3042.04H586.393V3048.56H602.193V3039.34H585.81V3036.05H582.47V3025.66H585.81V3022.37H602.723V3025.66H606.01V3032.76H602.193V3026.19H586.393V3035.47H602.723V3038.75H606.01V3049.14H602.723V3052.48H585.81V3049.14H582.47V3042.04Z" fill="black"/>
<path d="M622.499 3012.51H626.369V3052.48H622.499V3012.51Z" fill="black"/>
<path d="M646.251 3045.86H642.911V3028.89H646.251V3025.66H649.538V3022.37H659.93V3025.66H663.164V3028.89H666.451V3039.34H646.834V3045.33H650.068V3048.56H659.346V3045.33H662.634V3042.04H666.451V3045.86H663.164V3049.14H659.93V3052.48H649.538V3049.14H646.251V3045.86ZM662.634 3035.47V3029.47H659.346V3026.19H650.068V3029.47H646.834V3035.47H662.634Z" fill="black"/>
<path d="M676.471 3045.86H673.131V3028.89H676.471V3025.66H679.759V3022.37H690.15V3025.66H693.384V3028.89H696.672V3039.34H677.055V3045.33H680.289V3048.56H689.567V3045.33H692.854V3042.04H696.672V3045.86H693.384V3049.14H690.15V3052.48H679.759V3049.14H676.471V3045.86ZM692.854 3035.47V3029.47H689.567V3026.19H680.289V3029.47H677.055V3035.47H692.854Z" fill="black"/>
<path d="M709.979 3039.34H706.692V3032.76H703.352V3022.37H707.275V3032.18H710.509V3038.75H713.796V3045.33H716.5V3038.75H719.788V3032.18H723.075V3022.37H726.892V3032.76H723.605V3039.34H720.371V3045.86H717.084V3052.48H713.213V3045.86H709.979V3039.34Z" fill="black"/>
<path d="M736.913 3045.86H733.572V3028.89H736.913V3025.66H740.2V3022.37H750.591V3025.66H753.825V3028.89H757.113V3039.34H737.496V3045.33H740.73V3048.56H750.008V3045.33H753.295V3042.04H757.113V3045.86H753.825V3049.14H750.591V3052.48H740.2V3049.14H736.913V3045.86ZM753.295 3035.47V3029.47H750.008V3026.19H740.73V3029.47H737.496V3035.47H753.295Z" fill="black"/>
<path d="M763.793 3042.04H767.716V3048.56H783.516V3039.34H767.133V3036.05H763.793V3025.66H767.133V3022.37H784.046V3025.66H787.333V3032.76H783.516V3026.19H767.716V3035.47H784.046V3038.75H787.333V3049.14H784.046V3052.48H767.133V3049.14H763.793V3042.04Z" fill="black"/>
<path d="M827.574 3042.57H824.234V3022.37H828.157V3042.04H830.861V3032.18H834.096V3022.37H837.966V3032.18H841.253V3042.04H843.957V3022.37H847.774V3042.57H844.487V3052.48H840.67V3042.57H837.383V3032.76H834.679V3042.57H831.392V3052.48H827.574V3042.57Z" fill="black"/>
<path d="M864.263 3012.51H868.133V3019.67H864.263V3012.51ZM864.263 3022.37H868.133V3052.48H864.263V3022.37Z" fill="black"/>
<path d="M892.946 3026.19H886.319V3022.37H892.946V3012.51H896.763V3022.37H906.572V3026.19H896.763V3048.56H906.572V3052.48H896.18V3049.14H892.946V3026.19Z" fill="black"/>
<path d="M914.896 3012.51H918.819V3025.66H921.523V3022.37H931.915V3025.66H935.149V3028.89H938.436V3052.48H934.619V3029.47H931.331V3026.19H922.053V3029.47H918.819V3052.48H914.896V3012.51Z" fill="black"/>
<path d="M317.112 3076.34H313.825V3069.76H310.485V3059.37H314.408V3069.18H317.642V3075.75H320.929V3082.33H323.633V3075.75H326.92V3069.18H330.208V3059.37H334.025V3069.76H330.738V3076.34H327.504V3082.86H324.216V3089.48H320.346V3082.86H317.112V3076.34Z" fill="black"/>
<path d="M344.045 3082.86H340.705V3065.89H344.045V3062.66H347.332V3059.37H357.724V3062.66H360.958V3065.89H364.245V3076.34H344.629V3082.33H347.863V3085.56H357.141V3082.33H360.428V3079.04H364.245V3082.86H360.958V3086.14H357.724V3089.48H347.332V3086.14H344.045V3082.86ZM360.428 3072.47V3066.47H357.141V3063.19H347.863V3066.47H344.629V3072.47H360.428Z" fill="black"/>
<path d="M370.926 3059.37H374.849V3062.66H377.553V3059.37H387.945V3062.66H391.179V3065.89H394.466V3089.48H390.649V3066.47H387.361V3063.19H378.083V3066.47H374.849V3089.48H370.926V3059.37Z" fill="black"/>
<path d="M409.417 3063.19H402.79V3059.37H409.417V3049.51H413.235V3059.37H423.043V3063.19H413.235V3085.56H423.043V3089.48H412.651V3086.14H409.417V3063.19Z" fill="black"/>
<path d="M431.367 3079.04H435.29V3085.56H451.09V3076.34H434.707V3073.05H431.367V3062.66H434.707V3059.37H451.62V3062.66H454.907V3069.76H451.09V3063.19H435.29V3072.47H451.62V3075.75H454.907V3086.14H451.62V3089.48H434.707V3086.14H431.367V3079.04Z" fill="black"/>
<path d="M491.808 3075.75H495.148V3072.47H508.244V3063.19H495.731V3069.76H491.808V3062.66H495.148V3059.37H508.827V3062.66H512.061V3085.56H515.348V3089.48H511.531V3086.14H505.54V3089.48H495.148V3086.14H491.808V3075.75ZM504.957 3085.56V3082.33H508.244V3076.34H495.731V3085.56H504.957Z" fill="black"/>
<path d="M522.029 3059.37H525.952V3062.66H528.656V3059.37H539.047V3062.66H542.282V3065.89H545.569V3089.48H541.751V3066.47H538.464V3063.19H529.186V3066.47H525.952V3089.48H522.029V3059.37Z" fill="black"/>
<path d="M555.589 3082.86H552.249V3065.89H555.589V3062.66H558.876V3059.37H569.268V3062.66H571.972V3049.51H575.789V3089.48H571.972V3086.14H569.268V3089.48H558.876V3086.14H555.589V3082.86ZM559.407 3082.33V3085.56H568.685V3082.33H571.972V3066.47H568.685V3063.19H559.407V3066.47H556.172V3082.33H559.407Z" fill="black"/>
<path d="M612.69 3049.51H616.614V3062.66H619.317V3059.37H629.709V3062.66H632.943V3065.89H636.23V3082.86H632.943V3086.14H629.709V3089.48H619.317V3086.14H616.614V3089.48H612.69V3049.51ZM619.848 3082.33V3085.56H629.126V3082.33H632.413V3066.47H629.126V3063.19H619.848V3066.47H616.614V3082.33H619.848Z" fill="black"/>
<path d="M646.251 3082.86H642.911V3059.37H646.834V3082.33H650.068V3085.56H659.346V3082.33H662.634V3059.37H666.451V3089.48H662.634V3086.14H659.93V3089.48H649.538V3086.14H646.251V3082.86Z" fill="black"/>
<path d="M681.402 3063.19H674.775V3059.37H681.402V3049.51H685.22V3059.37H695.028V3063.19H685.22V3085.56H695.028V3089.48H684.636V3086.14H681.402V3063.19Z" fill="black"/>
<path d="M711.623 3063.19H704.995V3059.37H711.623V3049.51H715.44V3059.37H725.248V3063.19H715.44V3085.56H725.248V3089.48H714.857V3086.14H711.623V3063.19Z" fill="black"/>
<path d="M736.913 3082.86H733.572V3065.89H736.913V3062.66H740.2V3059.37H750.591V3062.66H753.825V3065.89H757.113V3082.86H753.825V3086.14H750.591V3089.48H740.2V3086.14H736.913V3082.86ZM740.73 3082.33V3085.56H750.008V3082.33H753.295V3066.47H750.008V3063.19H740.73V3066.47H737.496V3082.33H740.73Z" fill="black"/>
<path d="M763.793 3059.37H767.716V3062.66H770.42V3059.37H780.812V3062.66H784.046V3065.89H787.333V3089.48H783.516V3066.47H780.229V3063.19H770.95V3066.47H767.716V3089.48H763.793V3059.37Z" fill="black"/>
<path d="M794.013 3079.04H797.937V3085.56H813.736V3076.34H797.354V3073.05H794.013V3062.66H797.354V3059.37H814.267V3062.66H817.554V3069.76H813.736V3063.19H797.937V3072.47H814.267V3075.75H817.554V3086.14H814.267V3089.48H797.354V3086.14H794.013V3079.04Z" fill="black"/>
<path d="M826.09 3079.04H833.194V3086.14H826.09V3079.04Z" fill="black"/>
</svg>
